<svg width="80" height="56" viewBox="0 0 80 56" fill="none" xmlns="http://www.w3.org/2000/svg">
<path d="M56.7878 2.87964H50.1557H49.4648V14.8104L55.5443 25.0955L58.3076 18.513L71.8481 42.7859L67.9794 53.3453L80.0001 44.1573L56.7878 2.87964Z" fill="#C79C6E"/>
<path d="M29.9833 42.5123L34.2665 13.9883L15.3374 48.1349H32.8848L29.9833 42.5123Z" fill="#C79C6E"/>
<path d="M50.1557 42.5123L45.8724 13.9883L64.8015 48.1349H47.2541L50.1557 42.5123Z" fill="#C79C6E"/>
<path d="M33.2988 42.5118L39.6546 0L40.0691 0V55.8139L33.2988 42.5118Z" fill="#C79C6E"/>
<path d="M46.8394 42.5118L40.4836 0L40.0691 0V55.8139L46.8394 42.5118Z" fill="#C79C6E"/>
<path d="M23.2122 2.87964H29.8443H30.5352V14.8104L24.4557 25.0955L21.6924 18.513L8.15187 42.7859L12.0206 53.3453L-6.29425e-05 44.1573L23.2122 2.87964Z" fill="#C79C6E"/>
</svg>
