<svg width="150" height="150" viewBox="0 0 150 150" fill="none" xmlns="http://www.w3.org/2000/svg">
<g clip-path="url(#clip0_326_68)">
<path fill-rule="evenodd" clip-rule="evenodd" d="M21.321 61.7368H28.8465V71.0458H36.873V61.7368H44.3985V87.1453H36.873V77.0818H28.8465V87.1453H21.321V61.7368V61.7368ZM71.238 61.7368V87.1453H63.9645V67.7758H59.1975V75.0703C59.1975 78.3403 58.9455 82.3648 56.94 84.6298C54.933 87.1453 51.171 87.8998 46.9065 87.1453V80.8558C50.919 81.6103 51.924 80.1013 51.924 75.0703V61.7368H71.238ZM77.5095 61.7368H85.0335L89.298 76.8313L93.5625 61.7368H101.086L104.6 87.1453H97.5735L95.8185 73.5613L91.806 87.1453H86.79L82.776 73.5613L81.0195 87.1453H73.9965L77.5095 61.7368V61.7368ZM107.358 61.7368H114.882V72.0508L122.159 61.7368H130.434L120.903 74.3158L130.685 87.1453H121.654L114.882 76.8313V87.1453H107.358V61.7368ZM75 34.5703C29.85 34.5703 0 50.9203 0 75.0703C0 98.9683 29.85 115.57 75 115.57C120.401 115.57 150 98.9683 150 75.0703C150 50.9203 120.401 34.5703 75 34.5703ZM75 111.798C32.6085 111.798 4.2645 96.9553 4.2645 75.0703C4.2645 52.9333 32.6085 38.3428 75 38.3428C117.642 38.3428 145.735 52.9333 145.735 75.0703C145.735 96.9553 117.642 111.798 75 111.798ZM75 41.8633C35.118 41.8633 8.529 55.1968 8.529 75.0703C8.529 94.9438 35.118 108.276 75 108.276C114.882 108.276 141.471 94.9438 141.471 75.0703C141.471 55.1968 114.882 41.8633 75 41.8633V41.8633ZM75 107.521C35.619 107.521 9.2805 94.4398 9.2805 75.0703C9.2805 55.7008 35.619 42.6193 75 42.6193C114.381 42.6193 140.72 55.7008 140.72 75.0703C140.72 94.4398 114.381 107.521 75 107.521Z" fill="#004E94"/>
</g>
<defs>
<clipPath id="clip0_326_68">
<rect width="150" height="150" fill="white"/>
</clipPath>
</defs>
</svg>
