<svg width="163" height="52" viewBox="0 0 163 52" fill="none" xmlns="http://www.w3.org/2000/svg">
<path fill-rule="evenodd" clip-rule="evenodd" d="M10.6349 44.3611C3.74699 44.3611 0 39.2631 0 32.8319C0 26.3575 4.40644 21.0479 11.645 21.0479C13.5509 21.0479 15.2281 21.3067 16.6804 22.0831V26.2595C15.2216 25.3274 13.5338 24.8442 11.8166 24.8674C6.90697 24.8674 4.98964 28.5888 4.98964 32.5103C4.98964 36.8789 7.38345 40.3534 11.3744 40.3534C13.0992 40.3556 14.7937 39.8859 16.284 38.9926L17.481 42.2945C15.4584 43.6765 13.0779 44.3993 10.6502 44.3689L10.6349 44.3611ZM88.3689 44.3611C83.2724 44.3611 80.6614 40.5063 80.6614 35.9104C80.6614 30.7614 84.1225 27.3615 88.75 27.3615C90.7931 27.3615 91.868 27.7811 92.7138 28.2987V31.9927C91.7776 31.2275 90.6089 30.8264 89.4134 30.8593C86.8022 30.8593 85.1974 32.8202 85.1974 35.6828C85.1974 38.2397 86.421 40.7337 89.3446 40.7337C90.4295 40.6623 91.4847 40.3406 92.4321 39.7925L93.4994 42.8042C91.9508 43.7769 90.1825 44.3175 88.3689 44.3728V44.3611V44.3611ZM102.472 31.3771V44.0356H97.9407V31.3771H93.5335V27.687H107.443L106.299 31.3771H102.472V31.3771ZM124.265 29.6045C124.265 35.3025 124.043 38.2788 123.037 39.6396C122.517 40.3217 121.762 40.7733 120.929 40.9024L122.187 44.3689C123.583 44.3043 124.911 43.7285 125.93 42.7454C127.378 41.2906 127.855 39.4473 128.072 37.5023C128.275 35.74 128.38 33.9673 128.389 32.1926V31.3771H131.931V44.0356H136.462V27.687H124.265V29.6045V29.6045ZM21.4947 37.1377C21.5899 39.3415 23.6065 40.6984 25.7144 40.6984C27.2391 40.6984 28.417 40.4082 30.2161 39.522L31.2224 42.4709C29.3539 43.7035 27.1794 44.3558 24.9596 44.3493C19.2915 44.3493 16.9549 40.2043 16.9549 35.8985C16.9549 31.3025 19.6231 27.3497 24.3802 27.3497C28.7257 27.3497 31.7485 30.6516 31.7485 35.7025V37.1259L21.4947 37.1377V37.1377ZM24.2604 30.781C22.4379 30.7843 21.3995 32.4648 21.3995 33.9535H27.117C27.0219 32.3865 26.1736 30.7843 24.2604 30.781ZM52.7133 37.1573C52.8086 39.3612 54.8251 40.718 56.9329 40.718C58.4576 40.718 59.6394 40.4278 61.4348 39.5416L62.4409 42.4904C60.5728 43.724 58.3981 44.3762 56.1782 44.3689C50.5138 44.3689 48.1735 40.2239 48.1735 35.9182C48.1735 31.3221 50.8417 27.3693 55.5989 27.3693C59.9405 27.3693 62.9632 30.6712 62.9632 35.7221V37.1455L52.7133 37.1573V37.1573ZM55.4845 30.781C53.6586 30.781 52.6027 32.4437 52.6027 33.9182H58.3205C58.2251 32.3495 57.3713 30.7457 55.454 30.7457L55.4845 30.781V30.781ZM116.13 42.6003C115.554 43.1835 114.87 43.6415 114.117 43.9474C113.366 44.2532 112.562 44.4006 111.754 44.3806C108.735 44.3806 106.467 42.3062 106.467 39.0671C106.467 35.6044 109.178 33.8241 113.203 33.6947L115.871 33.5966V33.2751C115.871 31.5575 114.522 30.879 112.952 30.879C111.532 30.8721 110.137 31.2639 108.918 32.0122L107.534 29.1614C109.707 27.7065 111.781 27.3811 113.953 27.3811C118.147 27.3811 120.376 29.0948 120.376 33.4045V44.0356H116.851L116.13 42.6003V42.6003ZM113.843 36.7181C111.892 36.7847 110.985 37.4632 110.985 38.6789C110.985 39.8944 111.831 40.718 113.371 40.718C114.248 40.7605 115.114 40.4981 115.829 39.9729V36.6631L113.843 36.7181V36.7181ZM68.9554 43.6788V50.5765L64.4193 52.0001V27.687H68.2311L68.7343 29.1732C69.897 28.236 71.2539 27.3615 73.015 27.3615C76.6666 27.3615 79.5293 30.2085 79.5293 35.3926C79.5293 40.2474 76.6971 44.3611 72.0087 44.3611C70.9536 44.3899 69.9074 44.1558 68.9592 43.6788H68.9554V43.6788ZM68.9554 32.6241V40.3455C69.5247 40.7571 70.2035 40.9776 70.8993 40.9768C73.9832 40.9768 74.9895 38.0945 74.9895 35.3103C74.9972 31.9574 73.9487 30.781 72.1 30.781C70.907 30.781 69.4929 31.7848 68.9554 32.6241V32.6241ZM33.2123 27.6912H39.7229C40.6475 27.6527 41.5736 27.6828 42.494 27.7813C44.541 28.0637 46.6146 28.9932 46.6146 31.546C46.6146 33.6832 45.391 34.6831 43.9121 35.0085V35.1381C46.0505 35.5303 47.2778 36.7066 47.2778 39.0243C47.2778 42.8281 43.7481 43.879 40.8854 44.0202H38.6898H33.2123V27.6912V27.6912ZM37.7865 40.9339H39.6428C41.2133 40.9339 42.7569 40.4477 42.7569 38.8949C42.7569 37.4361 41.5907 36.934 39.4179 36.934H37.775L37.7865 40.9339V40.9339ZM37.8817 34.0362H39.2616C41.1675 34.0362 42.2805 33.6441 42.2805 32.3852C42.2805 31.3852 41.5907 30.8166 39.7304 30.8166H37.8703L37.8817 34.0362V34.0362ZM142.878 26.985V33.0084L145.207 33.0241C149.109 33.0241 152.285 34.577 152.285 38.3966C152.285 42.8866 148.352 44.0632 144.136 44.0632H138.345V28.4281L142.878 26.985V26.985ZM142.878 36.2475V40.8122L144.466 40.8005C146.247 40.8005 147.772 40.3887 147.772 38.4475C147.772 36.5064 146.01 36.2475 144.402 36.2475H142.878V36.2475Z" fill="#002F6C"/>
<path fill-rule="evenodd" clip-rule="evenodd" d="M159.179 17.2406C159.485 17.1354 159.774 16.9857 160.036 16.7964C160.499 15.595 160.894 14.3678 161.216 13.1212C161.636 11.5247 161.929 9.8974 162.093 8.25465C162.22 6.94744 162.22 5.63096 162.093 4.32376C161.966 3.11304 161.652 1.88268 160.914 1.17903C160.174 0.475413 158.971 0.157013 157.792 0.0508719C156.482 -0.0396077 155.166 -0.00934876 153.861 0.14129C154.148 0.271289 154.413 0.445005 154.647 0.656236C155.37 1.31662 155.704 2.44478 155.85 3.54937C155.965 4.42749 156.006 5.31379 155.972 6.19879C155.896 8.0108 155.62 9.80891 155.149 11.5606C154.795 12.9571 154.326 14.3219 153.747 15.6408C154.487 16.1007 155.263 16.5016 156.067 16.8398C157.108 17.2643 158.252 17.5354 159.179 17.2406ZM142.131 13.8957C142.067 14.2151 142.052 14.5426 142.088 14.8666C142.896 15.8551 143.759 16.7974 144.674 17.689C145.854 18.8581 147.124 19.9306 148.476 20.8966C149.545 21.6528 150.68 22.3106 151.869 22.8621C152.973 23.3691 154.199 23.6953 155.174 23.428C156.149 23.1608 157.021 22.2488 157.717 21.2386C158.463 20.1536 159.099 18.9975 159.617 17.7873C159.352 17.9847 159.057 18.1386 158.744 18.2433C157.816 18.542 156.671 18.2668 155.642 17.8502C154.824 17.5071 154.035 17.0983 153.282 16.6277C151.756 15.6534 150.34 14.5159 149.057 13.2353C148.024 12.2301 147.077 11.1415 146.223 9.98048C145.456 10.3949 144.725 10.8694 144.033 11.3996C143.149 12.0874 142.339 12.9445 142.131 13.8957V13.8957ZM152.753 0.29069C153.039 0.415527 153.303 0.582483 153.539 0.785988C154.253 1.43457 154.6 2.56275 154.746 3.66732C154.859 4.53642 154.899 5.4134 154.867 6.28922C153.445 6.44962 152.038 6.72704 150.661 7.11866C148.908 7.5854 147.212 8.24456 145.606 9.0841C144.816 9.49844 144.064 9.97701 143.353 10.5149C142.473 11.1949 141.663 12.0519 141.454 13.0071C141.388 13.3303 141.373 13.6621 141.412 13.9899C140.628 12.9426 139.949 11.8224 139.382 10.6447C138.859 9.53226 138.495 8.30579 138.745 7.31913C138.997 6.33247 139.921 5.43229 140.915 4.71687C141.982 3.95391 143.119 3.29572 144.312 2.75143C145.816 2.08405 147.369 1.53596 148.959 1.11225C150.206 0.763071 151.472 0.488735 152.753 0.29069V0.29069Z" fill="#002F6C"/>
</svg>
