<svg width="159" height="30" viewBox="0 0 159 30" fill="none" xmlns="http://www.w3.org/2000/svg">
<path d="M13.4385 24.0771C8.71415 21.8893 5.51252 18.0074 4.57191 13.871C4.1096 11.5332 4.93843 9.99683 5.47811 9.14103C6.062 8.20818 6.77721 8.15417 6.77721 8.15417C6.77721 8.15417 6.0445 7.80522 5.06179 7.65692C3.82822 7.47574 2.21865 7.61067 1.19913 9.168C0.443573 10.9413 0.0136186 12.8978 0 14.9504C0.023382 18.8863 1.5114 23.4446 6.0445 27.0646C7.31097 27.9993 8.71981 28.7394 10.2428 29.2444C10.4489 29.3138 10.6668 29.3696 10.875 29.4277C11.5419 29.6107 12.1931 29.7456 12.8274 29.842L12.9679 29.8612C13.1627 29.8882 13.3537 29.9036 13.5482 29.9268C13.8356 29.9537 14.1188 29.9769 14.4097 29.9884L14.8375 29.9982L14.9918 30C15.2619 30 15.5391 29.9923 15.8093 29.9769L15.8244 29.973C16.104 29.9653 16.3778 29.9345 16.6493 29.9036L16.7422 29.8959C16.9696 29.8651 17.1971 29.8322 17.4203 29.7918L17.8215 29.7186L17.8871 29.7052C20.3966 29.1846 22.4821 28.0515 24.0799 26.8775C25.0107 26.1566 25.8549 25.3299 26.5915 24.4181C22.91 26.1798 18.0143 26.1913 13.4385 24.0771Z" fill="#15559B"/>
<path d="M5.39657 6.60827C7.97372 3.34315 11.9327 1.21141 16.4065 1.21141C19.7217 1.21141 22.7689 2.36406 25.1666 4.27428C22.497 1.77424 18.9024 0.237903 14.9494 0.237903C9.71619 0.237903 5.12288 2.92301 2.4458 6.9917C3.20134 6.65248 4.29412 6.41761 5.39657 6.60827Z" fill="#15559B"/>
<path d="M14.1863 22.9512C16.052 24.0173 18.1028 24.607 20.1344 24.7998C20.9863 24.5899 21.8036 24.2776 22.5244 23.8708C25.3984 22.0744 33.8947 10.2899 33.8947 10.2899C33.8947 10.2899 29.2705 9.33777 27.2624 10.8103C25.2519 12.2791 23.7485 14.6074 21.5224 17.1229C19.2943 19.6363 18.3151 21.2186 16.3489 21.7159C14.8899 22.0898 13.5042 22.0263 12.2588 21.7467C12.8563 22.1554 13.4924 22.5542 14.1863 22.9512Z" fill="#15559B"/>
<path d="M27.9217 23.4813C29.7006 22.1861 33.8562 16.5232 33.8562 16.5232C33.8562 16.5232 30.6682 14.8502 27.7732 16.5232C24.8761 18.2039 24.9647 18.6318 22.0889 20.9988C19.2209 23.3675 17.0698 23.6355 15.4896 23.5122L15.2236 23.4813C19.3676 25.4088 24.7607 25.7228 27.9217 23.4813Z" fill="#ED1C24"/>
<path d="M33.9965 0.259617C33.9965 0.259617 29.2896 -1.0279 25.6316 2.1311C23.0043 4.4037 17.3415 19.6478 12.889 20.5095C12.0237 20.6791 11.3296 20.6984 10.7632 20.629L10.7902 20.6504C11.5377 20.7177 12.4054 20.6907 13.4074 20.4959C17.858 19.6365 23.7465 5.56398 26.4717 3.40526C29.2013 1.26194 32.4643 1.79392 32.4643 1.79392L29.9221 6.70117" fill="#15559B"/>
<path d="M49.4992 6.98209C49.9849 6.98209 50.3609 7.35598 50.3609 7.84559V8.70343C50.3609 9.19272 49.9849 9.56489 49.4992 9.56489H45.415V19.2389C45.415 19.7072 45.0257 20.0811 44.5572 20.0811H42.8379C42.3655 20.0811 41.9762 19.7072 41.9762 19.2389V9.56489H37.8941C37.4102 9.56489 37.0342 9.19272 37.0342 8.70343V7.84559C37.0342 7.35598 37.4102 6.98209 37.8941 6.98209" fill="#15559B"/>
<path d="M53.3331 12.9149V17.6852C54.102 17.9319 54.846 18.0651 55.3145 18.0651C57.0009 18.0651 57.6197 17.1476 57.6197 15.0677C57.6197 13.0092 57.0009 12.092 55.5052 12.092C54.8305 12.092 53.9882 12.5063 53.3331 12.9149ZM60.8731 15.0677C60.8731 18.5084 58.8898 20.27 55.9698 20.27C54.846 20.27 54.102 20.0465 53.3331 19.8057V22.61C53.3331 22.93 53.0899 23.1729 52.7703 23.1729H50.7328C50.4128 23.1729 50.1738 22.93 50.1738 22.61V10.631C50.1738 10.3166 50.4128 10.0738 50.7328 10.0738H52.4924C52.8068 10.0738 53.0514 10.3166 53.0514 10.631V10.9142C53.8956 10.3167 54.921 9.88289 56.2512 9.88289C58.907 9.88289 60.8731 11.6466 60.8731 15.0677Z" fill="#15559B"/>
<path d="M69.35 17.3694V15.9505H66.5395C65.6645 15.9505 65.1598 16.4344 65.1598 17.0512C65.1598 17.7066 65.6644 18.1922 66.6362 18.1922C67.7599 18.1922 68.6948 17.7837 69.35 17.3694ZM65.6993 12.5795C65.4605 12.8763 65.119 13.0652 64.6546 13.0652H63.2822C62.9716 13.0652 62.7249 12.8223 62.7249 12.5063C62.7249 10.5595 64.6697 9.88287 67.704 9.88287C70.4001 9.88287 72.5126 11.0085 72.5126 13.8709V19.5222C72.5126 19.8401 72.2678 20.0811 71.952 20.0811H70.1941C69.8704 20.0811 69.631 19.8401 69.631 19.5222V19.239C68.7869 19.8401 67.7599 20.27 66.3197 20.27C63.8644 20.27 61.9927 19.1676 61.9927 17.0512C61.9927 14.9349 63.8644 13.8709 66.3197 13.8709H69.35C69.35 12.4117 68.729 11.9627 67.4763 11.9627C66.7092 11.9627 66.021 12.1863 65.6993 12.5795Z" fill="#15559B"/>
<path d="M77.9237 13.9037H81.929V10.6289C81.929 10.3127 82.1718 10.0698 82.4883 10.0698H84.5251C84.8469 10.0698 85.0903 10.3127 85.0903 10.6289V19.5221C85.0903 19.84 84.8469 20.0811 84.5251 20.0811H82.4883C82.1718 20.0811 81.929 19.84 81.929 19.5221V16.1164H77.9237V19.5221C77.9237 19.84 77.677 20.0811 77.3612 20.0811H75.3217C75.0039 20.0811 74.7605 19.84 74.7605 19.5221V10.6289C74.7605 10.3127 75.0039 10.0698 75.3217 10.0698H77.3612C77.677 10.0698 77.9237 10.3127 77.9237 10.6289" fill="#15559B"/>
<path d="M90.0295 15.089C90.0295 17.1476 90.6486 18.0651 92.5164 18.0651C93.4704 18.0651 94.1644 17.7066 94.4822 17.2033C94.7441 16.7909 95.0645 16.5308 95.5289 16.5308H96.9013C97.2152 16.5308 97.4579 16.7737 97.4579 17.0898C97.4579 19.2254 95.5132 20.2739 92.2907 20.2739C88.7367 20.2739 86.7722 18.5101 86.7722 15.089C86.7722 11.6466 88.7598 9.8829 92.198 9.8829C95.4211 9.8829 97.3638 10.9334 97.3638 13.067C97.3638 13.3834 97.1191 13.6242 96.8027 13.6242H95.4401C94.9677 13.6242 94.652 13.3659 94.3914 12.9535C94.0737 12.4485 93.3815 12.092 92.4236 12.092C90.6486 12.092 90.0295 13.0092 90.0295 15.089Z" fill="#15559B"/>
<path d="M102.113 13.9037H106.118V10.6289C106.118 10.3127 106.365 10.0698 106.685 10.0698H108.724C109.041 10.0698 109.279 10.3127 109.279 10.6289V19.5221C109.279 19.84 109.041 20.0811 108.724 20.0811H106.685C106.365 20.0811 106.118 19.84 106.118 19.5221V16.1164H102.113V19.5221C102.113 19.84 101.872 20.0811 101.554 20.0811H99.5147C99.195 20.0811 98.9463 19.84 98.9463 19.5221V10.6289C98.9463 10.3127 99.195 10.0698 99.5147 10.0698H101.554C101.872 10.0698 102.113 10.3127 102.113 10.6289" fill="#15559B"/>
<path d="M114.168 14.1099H118.416C118.362 12.7067 117.687 11.9627 116.307 11.9627C114.954 11.9627 114.243 12.7067 114.168 14.1099ZM114.187 16.0394C114.318 17.5369 114.993 18.1922 116.529 18.1922C117.313 18.1922 118.005 17.9687 118.325 17.5754C118.57 17.2765 118.901 17.0898 119.372 17.0898H120.736C121.058 17.0898 121.299 17.3344 121.299 17.6525C121.299 19.5993 119.295 20.27 116.307 20.27C112.972 20.27 110.971 18.4737 110.971 15.089C110.971 11.716 112.988 9.88287 116.307 9.88287C119.632 9.88287 121.638 11.662 121.638 14.9559V15.4805C121.638 15.7963 121.393 16.0394 121.076 16.0394" fill="#15559B"/>
<path d="M131.218 18.0843C132.845 18.0651 133.646 17.1648 133.646 15.0698C133.646 12.9727 132.845 12.092 131.218 12.0745V18.0843ZM128.165 12.0745C126.544 12.092 125.73 12.9727 125.73 15.0698C125.73 17.1648 126.544 18.0651 128.165 18.0843V12.0745ZM128.109 7.54502C128.109 7.22686 128.351 6.98396 128.67 6.98396H130.709C131.029 6.98396 131.272 7.22686 131.272 7.54502V10.0738C134.83 10.1625 136.808 11.8085 136.808 15.0698C136.808 18.3254 134.83 19.9925 131.272 20.0833V22.61C131.272 22.93 131.029 23.1729 130.709 23.1729H128.67C128.351 23.1729 128.109 22.93 128.109 22.61V20.0833C124.557 19.9925 122.567 18.3254 122.567 15.0698C122.567 11.8085 124.557 10.1625 128.109 10.0738" fill="#15559B"/>
<path d="M146.56 10.0737C146.878 10.0737 147.121 10.3166 147.121 10.6309V11.7159C147.121 12.0397 146.878 12.2766 146.56 12.2766H143.642V19.5221C143.642 19.84 143.399 20.0811 143.079 20.0811H141.04C140.722 20.0811 140.477 19.84 140.477 19.5221V12.2766H137.563C137.239 12.2766 136.998 12.0397 136.998 11.7159V10.6309C136.998 10.3166 137.239 10.0737 137.563 10.0737" fill="#15559B"/>
<path d="M151.591 15.4611V18.0054H154.085C154.83 18.0054 155.28 17.5561 155.28 16.7311C155.28 15.9101 154.83 15.4611 154.085 15.4611H151.591ZM154.364 13.3812C156.779 13.3812 158.441 14.1908 158.441 16.7311C158.441 19.2754 156.779 20.0811 154.364 20.0811H148.994C148.678 20.0811 148.432 19.84 148.432 19.5221V10.6289C148.432 10.3127 148.678 10.0698 148.994 10.0698H151.032C151.351 10.0698 151.591 10.3127 151.591 10.6289V13.3812" fill="#15559B"/>
</svg>
