<svg width="16" height="16" viewBox="0 0 16 16" fill="none" xmlns="http://www.w3.org/2000/svg">
<g clip-path="url(#clip0_2_1046)">
<path d="M4.41355 0.000275509C4.17707 -0.00492563 3.94485 0.0636256 3.74917 0.196504C3.55349 0.329383 3.40407 0.520021 3.32169 0.741744C3.23931 0.963468 3.22806 1.20532 3.2895 1.43373C3.35094 1.66214 3.48203 1.86565 3.66453 2.01612L10.628 7.9816L3.66453 13.945C3.53828 14.0378 3.43256 14.1556 3.35397 14.2911C3.27538 14.4266 3.22562 14.577 3.20782 14.7327C3.19001 14.8883 3.20453 15.0459 3.25047 15.1957C3.29642 15.3455 3.3728 15.4842 3.47482 15.6032C3.57685 15.7221 3.70233 15.8185 3.8434 15.8867C3.98447 15.9548 4.13809 15.9931 4.29465 15.9992C4.45121 16.0052 4.60733 15.9789 4.75323 15.9218C4.89914 15.8648 5.03168 15.7782 5.14257 15.6675L13.1151 8.84619C13.2403 8.73935 13.3408 8.60673 13.4097 8.45727C13.4787 8.30782 13.5144 8.14514 13.5144 7.98055C13.5144 7.81596 13.4787 7.65328 13.4097 7.50383C13.3408 7.35437 13.2403 7.22162 13.1151 7.11478L5.14257 0.28694C4.94117 0.108053 4.68285 0.00635071 4.41355 1.2996e-05V0.000275509Z" fill="white"/>
</g>
<defs>
<clipPath id="clip0_2_1046">
<rect width="16" height="16" fill="white"/>
</clipPath>
</defs>
</svg>
