<svg width="16" height="16" viewBox="0 0 16 16" fill="none" xmlns="http://www.w3.org/2000/svg">
<g clip-path="url(#clip0_2_1051)">
<path d="M11.5865 0.000275509C11.8229 -0.00492563 12.0551 0.0636256 12.2508 0.196504C12.4465 0.329383 12.5959 0.520021 12.6783 0.741744C12.7607 0.963468 12.7719 1.20532 12.7105 1.43373C12.6491 1.66214 12.518 1.86565 12.3355 2.01612L5.37203 7.9816L12.3355 13.945C12.4617 14.0378 12.5674 14.1556 12.646 14.2911C12.7246 14.4266 12.7744 14.577 12.7922 14.7327C12.81 14.8883 12.7955 15.0459 12.7495 15.1957C12.7036 15.3455 12.6272 15.4842 12.5252 15.6032C12.4232 15.7221 12.2977 15.8185 12.1566 15.8867C12.0155 15.9548 11.8619 15.9931 11.7053 15.9992C11.5488 16.0052 11.3927 15.9789 11.2468 15.9218C11.1009 15.8648 10.9683 15.7782 10.8574 15.6675L2.88492 8.84619C2.75972 8.73935 2.65919 8.60673 2.59025 8.45727C2.52131 8.30782 2.48561 8.14514 2.48561 7.98055C2.48561 7.81596 2.52131 7.65328 2.59025 7.50383C2.65919 7.35437 2.75972 7.22162 2.88492 7.11478L10.8574 0.28694C11.0588 0.108053 11.3172 0.00635071 11.5865 1.2996e-05V0.000275509Z" fill="white"/>
</g>
<defs>
<clipPath id="clip0_2_1051">
<rect width="16" height="16" fill="white" transform="matrix(-1 0 0 1 16 0)"/>
</clipPath>
</defs>
</svg>
