<svg width="26" height="26" viewBox="0 0 26 26" fill="none" xmlns="http://www.w3.org/2000/svg">
<g clip-path="url(#clip0_2_1108)">
<path d="M19.6925 17.1532C18.8524 16.3238 17.8036 16.3238 16.9689 17.1532C16.3321 17.7846 15.6954 18.416 15.0693 19.0581C14.8981 19.2347 14.7536 19.2721 14.5449 19.1544C14.1329 18.9297 13.6941 18.7477 13.2982 18.5016C11.4521 17.3405 9.90569 15.8476 8.53586 14.1674C7.8563 13.3326 7.25164 12.439 6.82892 11.4331C6.74331 11.2297 6.75936 11.096 6.92524 10.9301C7.562 10.3147 8.1827 9.68333 8.80875 9.05192C9.68095 8.17438 9.68095 7.147 8.8034 6.26411C8.30577 5.76112 7.80814 5.26884 7.3105 4.76586C6.79682 4.25217 6.28848 3.73313 5.76944 3.2248C4.92935 2.40611 3.88058 2.40611 3.04584 3.23015C2.40373 3.86155 1.78838 4.50901 1.13557 5.12972C0.530914 5.70226 0.225912 6.40323 0.161702 7.22192C0.0600345 8.55429 0.386439 9.81175 0.846617 11.0371C1.78838 13.5734 3.22242 15.8262 4.96146 17.8916C7.3105 20.6848 10.1144 22.8947 13.3945 24.4893C14.8713 25.2063 16.4017 25.7574 18.0658 25.8484C19.2109 25.9126 20.2062 25.6236 21.0035 24.73C21.5492 24.12 22.1646 23.5635 22.7425 22.9803C23.5986 22.1135 23.604 21.0647 22.7532 20.2085C21.7365 19.1865 20.7145 18.1698 19.6925 17.1532Z" fill="white"/>
<path d="M18.67 12.8886L20.6445 12.5515C20.3341 10.7376 19.478 9.09486 18.1777 7.78924C16.8025 6.41405 15.0635 5.54721 13.1479 5.27966L12.8696 7.26485C14.3518 7.47353 15.7003 8.1424 16.7651 9.20722C17.7711 10.2132 18.4292 11.4867 18.67 12.8886Z" fill="white"/>
<path d="M21.758 4.30582C19.4785 2.02634 16.5944 0.586947 13.4106 0.142822L13.1323 2.12801C15.8827 2.51327 18.3762 3.76003 20.3453 5.72381C22.2128 7.59127 23.4382 9.95102 23.8823 12.5462L25.8568 12.2091C25.3377 9.20189 23.9197 6.47294 21.758 4.30582Z" fill="white"/>
</g>
<defs>
<clipPath id="clip0_2_1108">
<rect width="25.7143" height="25.7143" fill="white" transform="translate(0.143066 0.142822)"/>
</clipPath>
</defs>
</svg>
