<svg width="14" height="16" viewBox="0 0 14 16" fill="none" xmlns="http://www.w3.org/2000/svg">
<path d="M12.4374 3.37396C11.9707 2.45392 11.2803 1.66595 10.4295 1.08249C9.57874 0.499032 8.59494 0.138809 7.56857 0.0349392C7.10427 -0.0116464 6.63648 -0.0116464 6.17217 0.0349392C5.14582 0.138877 4.16205 0.499089 3.31125 1.08248C2.46046 1.66587 1.76992 2.45372 1.30309 3.37365C0.715748 4.54743 0.488883 5.86877 0.651067 7.17123C0.813251 8.4737 1.35723 9.69905 2.21449 10.6929L6.39483 15.7754C6.45256 15.8456 6.52513 15.9022 6.60733 15.941C6.68953 15.9799 6.77931 16 6.87022 16C6.96113 16 7.05091 15.9799 7.13311 15.941C7.21531 15.9022 7.28788 15.8456 7.34561 15.7754L11.5259 10.6929C12.3832 9.6991 12.9272 8.47381 13.0894 7.17139C13.2515 5.86898 13.0247 4.54769 12.4374 3.37396ZM6.87022 8.61506C6.38336 8.61506 5.90744 8.47069 5.50263 8.2002C5.09783 7.92972 4.78232 7.54527 4.59601 7.09548C4.4097 6.64568 4.36095 6.15074 4.45593 5.67323C4.55091 5.19573 4.78535 4.75712 5.12961 4.41286C5.47387 4.0686 5.91249 3.83416 6.38999 3.73918C6.86749 3.64419 7.36243 3.69294 7.81223 3.87925C8.26203 4.06557 8.64647 4.38107 8.91696 4.78588C9.18744 5.19069 9.33181 5.66661 9.33181 6.15347C9.33104 6.80609 9.07145 7.43176 8.60998 7.89323C8.14851 8.3547 7.52284 8.61429 6.87022 8.61506Z" fill="#C79C6E"/>
</svg>
