<svg width="16" height="16" viewBox="0 0 16 16" fill="none" xmlns="http://www.w3.org/2000/svg">
<g clip-path="url(#clip0_2_1142)">
<path d="M0.000275456 11.5865C-0.00492567 11.8229 0.0636255 12.0551 0.196504 12.2508C0.329383 12.4465 0.520021 12.5959 0.741744 12.6783C0.963468 12.7607 1.20532 12.7719 1.43373 12.7105C1.66214 12.6491 1.86565 12.518 2.01612 12.3355L7.9816 5.37203L13.945 12.3355C14.0378 12.4617 14.1556 12.5674 14.2911 12.646C14.4266 12.7246 14.577 12.7744 14.7327 12.7922C14.8883 12.81 15.0459 12.7955 15.1957 12.7495C15.3455 12.7036 15.4842 12.6272 15.6032 12.5252C15.7221 12.4232 15.8185 12.2977 15.8867 12.1566C15.9548 12.0155 15.9931 11.8619 15.9992 11.7053C16.0052 11.5488 15.9789 11.3927 15.9218 11.2468C15.8648 11.1009 15.7782 10.9683 15.6675 10.8574L8.84619 2.88492C8.73935 2.75972 8.60673 2.65919 8.45727 2.59025C8.30782 2.52131 8.14514 2.48561 7.98055 2.48561C7.81596 2.48561 7.65328 2.52131 7.50383 2.59025C7.35437 2.65919 7.22162 2.75972 7.11478 2.88492L0.28694 10.8574C0.108053 11.0588 0.00635065 11.3172 1.2943e-05 11.5865L0.000275456 11.5865Z" fill="white"/>
</g>
<defs>
<clipPath id="clip0_2_1142">
<rect width="16" height="16" fill="white" transform="translate(0 16) rotate(-90)"/>
</clipPath>
</defs>
</svg>
