<?xml version="1.0" standalone="no"?>
<!DOCTYPE svg PUBLIC "-//W3C//DTD SVG 20010904//EN"
 "http://www.w3.org/TR/2001/REC-SVG-20010904/DTD/svg10.dtd">
<svg version="1.0" xmlns="http://www.w3.org/2000/svg"
 width="700.000000pt" height="700.000000pt" viewBox="0 0 700.000000 700.000000"
 preserveAspectRatio="xMidYMid meet">
<metadata>
Created by potrace 1.14, written by Peter Selinger 2001-2017
</metadata>
<g transform="translate(0.000000,700.000000) scale(0.100000,-0.100000)"
fill="#000000" stroke="none">
<path d="M3469 5936 c0 -6 -2 -18 -4 -26 -5 -27 -16 -94 -21 -135 -3 -22 -9
-65 -15 -95 -5 -30 -11 -77 -14 -105 -3 -27 -8 -57 -10 -65 -3 -8 -7 -35 -10
-60 -3 -25 -12 -85 -20 -135 -7 -49 -16 -110 -20 -135 -3 -25 -10 -70 -15
-100 -5 -30 -12 -75 -15 -100 -3 -25 -10 -70 -15 -100 -6 -30 -12 -76 -15
-101 -3 -26 -8 -57 -10 -70 -3 -13 -7 -41 -10 -64 -3 -22 -13 -83 -21 -135 -8
-52 -17 -112 -20 -135 -2 -22 -16 -114 -29 -205 -14 -91 -28 -183 -31 -205 -4
-22 -8 -49 -10 -60 -3 -19 -7 -48 -19 -135 -3 -19 -10 -60 -15 -90 -5 -30 -12
-77 -15 -104 -3 -27 -7 -59 -10 -70 -2 -12 -7 -39 -10 -61 -12 -82 -25 -171
-29 -195 -3 -14 -10 -61 -16 -105 -6 -44 -17 -120 -25 -170 -8 -49 -16 -106
-19 -125 -10 -77 -19 -136 -22 -152 -4 -23 -17 -110 -19 -128 -3 -24 -16 -113
-21 -140 -3 -14 -7 -45 -10 -70 -4 -25 -10 -64 -14 -87 -7 -39 -3 -52 47 -150
30 -60 135 -265 233 -458 98 -192 206 -405 240 -473 34 -68 66 -120 70 -115 4
4 83 157 175 338 92 182 224 439 292 573 68 135 122 251 119 260 -3 9 -7 40
-11 67 -3 28 -12 91 -20 140 -8 50 -16 108 -19 130 -4 22 -8 51 -11 65 -3 14
-7 41 -9 60 -3 19 -9 64 -15 100 -5 36 -16 115 -25 175 -9 61 -21 138 -26 173
-20 124 -30 188 -34 227 -3 22 -8 51 -10 65 -3 14 -10 61 -16 105 -6 44 -14
94 -16 110 -11 68 -13 85 -29 193 -9 62 -18 123 -21 135 -2 12 -7 42 -10 67
-3 25 -7 56 -10 70 -5 32 -45 298 -49 325 -10 80 -37 259 -45 300 -5 28 -12
73 -15 100 -3 28 -10 75 -15 105 -5 30 -12 75 -15 100 -7 54 -14 96 -20 130
-2 14 -7 45 -10 70 -3 25 -10 70 -15 100 -5 30 -12 75 -15 100 -3 25 -8 57
-11 73 -9 60 -13 85 -24 162 -6 44 -13 91 -16 105 -2 14 -6 45 -10 70 -9 76
-12 79 -50 78 -19 -1 -34 -6 -35 -12z"/>
<path d="M1969 5585 c-34 -60 -142 -252 -239 -425 -97 -173 -188 -335 -202
-360 -102 -179 -155 -274 -186 -330 -45 -83 -179 -320 -192 -340 -6 -8 -14
-24 -19 -36 -5 -11 -28 -51 -50 -88 -23 -36 -41 -68 -41 -70 0 -2 -17 -35 -39
-73 -111 -196 -171 -303 -196 -348 -15 -27 -66 -117 -113 -200 -47 -82 -95
-168 -107 -190 -12 -22 -52 -94 -90 -160 -37 -66 -80 -142 -95 -170 -15 -27
-67 -120 -115 -205 -48 -85 -100 -177 -116 -205 -15 -27 -59 -106 -98 -175
-78 -139 -77 -123 -5 -177 16 -12 131 -100 255 -195 125 -95 239 -183 255
-195 371 -284 466 -355 468 -352 2 2 -20 67 -49 144 -28 77 -96 262 -149 410
-54 149 -104 284 -111 300 -7 17 -15 36 -17 44 -2 8 79 164 180 345 101 182
198 356 214 386 17 30 47 84 68 120 20 36 51 90 67 120 16 30 138 249 270 485
132 237 251 450 265 475 91 165 113 199 119 193 4 -5 57 -129 119 -278 62
-148 115 -272 117 -275 5 -5 12 6 58 85 17 29 130 221 253 428 l222 375 0 524
0 523 -319 0 -320 0 -62 -110z"/>
<path d="M4330 5173 c0 -493 1 -524 19 -556 10 -18 99 -168 196 -333 98 -164
193 -324 210 -354 18 -30 47 -81 66 -112 18 -32 36 -58 39 -58 3 0 36 75 74
168 38 92 77 185 87 207 10 22 31 71 47 108 16 38 32 69 36 70 4 1 24 -29 45
-68 21 -38 95 -173 166 -300 71 -126 140 -250 153 -275 14 -25 64 -115 112
-200 48 -85 98 -175 112 -200 14 -25 79 -142 145 -260 66 -118 135 -242 153
-275 18 -33 40 -73 50 -90 10 -16 29 -50 42 -75 14 -25 34 -61 45 -80 11 -19
35 -62 53 -95 18 -33 50 -90 70 -126 l37 -66 -62 -169 c-90 -241 -223 -607
-251 -686 l-23 -68 107 82 c59 45 109 85 112 88 3 3 68 52 145 110 77 58 142
107 145 111 3 3 23 19 45 35 22 16 143 107 268 203 l227 174 -31 56 c-18 31
-75 133 -127 226 -53 94 -122 217 -155 275 -33 58 -69 123 -81 145 -12 22 -76
135 -141 250 -65 116 -129 230 -143 255 -13 25 -42 74 -62 110 -21 36 -78 137
-127 225 -50 88 -100 178 -113 200 -89 158 -218 388 -238 425 -13 25 -27 50
-32 55 -4 6 -24 42 -45 80 -21 39 -86 156 -145 260 -59 105 -118 210 -132 235
-52 92 -170 302 -307 545 -77 137 -142 254 -144 260 -2 6 -121 10 -325 10
l-322 0 0 -522z"/>
<path d="M2987 4703 c-6 -9 -8 -14 -212 -383 -86 -157 -166 -301 -177 -320
-31 -52 -293 -526 -361 -650 -16 -30 -49 -89 -72 -130 -23 -41 -56 -100 -72
-130 -32 -59 -61 -110 -128 -230 -23 -41 -59 -106 -80 -145 -21 -38 -79 -144
-130 -235 -88 -159 -130 -233 -183 -330 -14 -25 -44 -79 -67 -120 -23 -41 -57
-102 -75 -135 -18 -33 -43 -79 -56 -103 -13 -23 -24 -46 -24 -50 0 -5 1490 -9
1522 -3 4 0 -5 22 -20 48 -15 27 -63 118 -107 203 -43 85 -89 174 -100 197
-19 36 -21 50 -14 95 5 29 11 71 14 93 3 22 10 65 15 95 5 30 11 73 15 95 3
22 7 51 10 65 4 26 9 58 21 145 3 28 8 59 10 70 2 11 7 40 10 65 3 25 8 54 10
64 2 11 8 54 14 96 6 42 12 85 14 96 5 26 15 91 21 134 3 19 16 109 30 200 14
91 28 185 31 210 3 25 7 52 9 60 2 8 7 35 10 60 3 25 8 56 10 70 2 14 7 45 10
70 3 25 15 99 25 165 10 66 22 140 25 165 3 25 8 57 11 71 2 15 7 47 10 70 14
99 24 168 34 219 8 44 7 60 -3 43z"/>
<path d="M4020 4674 c5 -22 11 -61 15 -89 10 -77 16 -119 20 -135 2 -8 7 -35
10 -60 6 -47 16 -115 20 -140 2 -8 6 -37 9 -65 4 -27 11 -75 16 -105 12 -69
16 -95 30 -195 12 -83 13 -88 29 -195 6 -36 13 -83 16 -105 3 -22 8 -55 10
-72 6 -42 15 -102 20 -129 2 -12 7 -48 11 -80 4 -33 8 -61 9 -64 3 -13 15 -89
20 -125 3 -22 10 -65 15 -95 8 -47 27 -176 46 -315 3 -22 7 -42 9 -45 1 -3 6
-32 9 -65 4 -33 9 -73 12 -90 3 -16 14 -85 24 -153 l19 -123 -96 -187 c-53
-103 -109 -211 -125 -241 -15 -30 -28 -57 -28 -60 0 -8 1506 -8 1514 0 8 7 -5
39 -35 89 -12 19 -37 64 -57 100 -19 36 -43 79 -52 95 -10 17 -30 53 -45 80
-15 28 -37 68 -49 90 -39 70 -852 1537 -924 1665 -13 25 -37 68 -52 95 -140
255 -412 741 -419 748 -6 6 -6 -6 -1 -29z"/>
</g>
</svg>
